<svg id="Слой_1" data-name="Слой 1" xmlns="http://www.w3.org/2000/svg" viewBox="0 0 285.6 58.1"><defs><style>.cls-1{fill:#2bb673}.cls-2{fill:none}.cls-3{fill:#fff}</style></defs><title>footer-logo</title><path class="cls-1" d="M242.56 2845.16a6.12 6.12 0 0 1-4.17 1.55 5.6 5.6 0 0 1-4-1.57l-12.5-12.5v-29.77l12.72 11.65-7.6 7.51a2.7 2.7 0 0 0 0 3.83 2.71 2.71 0 0 0 3.83 0l7.69-7.61 7.67 7.62a2.7 2.7 0 0 0 3.62.18l.21-.19a2.71 2.71 0 0 0 0-3.83l-7.58-7.53 12.72-11.65v29.77zm16.32-50.91a2.7 2.7 0 0 0-2.92.48l-17.52 16-17.52-16a2.7 2.7 0 0 0-4.53 2v37a2.7 2.7 0 0 0 .92 2l13.18 13.27a11 11 0 0 0 7.86 3.16h.08a11.42 11.42 0 0 0 8-3.16l13.16-13.16a2.69 2.69 0 0 0 .92-2v-37a2.7 2.7 0 0 0-1.61-2.48" transform="translate(-216.4 -2794.02)"/><path class="cls-2" d="M0 0h285.59v58.1H0z"/><path class="cls-3" d="M293 2811.32l1.8 1.78a8.15 8.15 0 1 1-.22-11.12l-1.82 1.77a5.41 5.41 0 0 0-4-1.73 5.63 5.63 0 0 0 0 11.23 5.6 5.6 0 0 0 4.25-1.93m10.82-2.13a2.48 2.48 0 0 0-2.67-2.16 2.45 2.45 0 0 0-2.61 2.16h5.28zm2.7.94v1h-8a3 3 0 0 0 3 2.16 4.29 4.29 0 0 0 2.92-1.08l1.35 2a6.82 6.82 0 0 1-4.27 1.53 5.6 5.6 0 0 1-5.73-5.6 5.36 5.36 0 1 1 10.72 0m11.6-1.54v6.9h-2.7v-6.22a2 2 0 0 0-2.11-2.18 2.63 2.63 0 0 0-2.11 1.37v7h-2.7v-10.65h2.5v1.55a3.68 3.68 0 0 1 3.19-1.82 3.81 3.81 0 0 1 3.91 4m1.9-3.7h2v-3.17h2.7v3.17h3.3v2.43h-3.21v4.29c0 1.3.67 1.68 1.39 1.68a2.13 2.13 0 0 0 1.12-.38l1 2.2a4.85 4.85 0 0 1-2.56.7A3.56 3.56 0 0 1 322 2812v-4.72h-2v-2.43zm17.46.07l-.94 2.43a3.1 3.1 0 0 0-1.28-.25 2.82 2.82 0 0 0-2.38 1.44v7h-2.69v-10.65h2.56v1.55a3.47 3.47 0 0 1 2.9-1.82 5.8 5.8 0 0 1 1.84.34m8.32 4.23a2.69 2.69 0 0 0-5.28 0h5.28zm2.7.94v1h-8a3 3 0 0 0 3 2.16 4.29 4.29 0 0 0 2.92-1.08l1.35 2a6.82 6.82 0 0 1-4.27 1.53 5.6 5.6 0 0 1-5.73-5.6 5.36 5.36 0 1 1 10.72 0" transform="translate(-216.4 -2794.02)"/><path class="cls-3" d="M143.68 12.16h6.18v2.56h-6.18v6.76h-2.69V5.75h9.32v2.56h-6.63v3.85z"/><path class="cls-3" d="M376.26 2810.18a2.95 2.95 0 1 0-2.94 3.08 2.91 2.91 0 0 0 2.94-3.08m2.74 0a5.69 5.69 0 1 1-5.69-5.59 5.6 5.6 0 0 1 5.69 5.59m9.28-5.26l-.94 2.43a3.1 3.1 0 0 0-1.28-.25 2.82 2.82 0 0 0-2.38 1.44v7H381v-10.65h2.56v1.55a3.46 3.46 0 0 1 2.9-1.82 5.8 5.8 0 0 1 1.84.34m11.88 4.34h4.72l-2.36-6.13zm1-9.53h2.74l6.08 15.73h-2.72l-1.44-3.73h-6.65l-1.44 3.73h-2.72zm19.94 8.83v6.9h-2.7v-6.22a2 2 0 0 0-2.11-2.18 2.63 2.63 0 0 0-2.11 1.37v7h-2.7v-10.65h2.5v1.55a3.68 3.68 0 0 1 3.19-1.82 3.82 3.82 0 0 1 3.91 4m3.14-3.7h2.7v10.65h-2.7v-10.65zm1.35-5.21a1.78 1.78 0 1 1-1.78 1.78 1.76 1.76 0 0 1 1.78-1.78m20.56 9.01v6.85h-2.7v-6.16c0-1.46-.56-2.25-1.91-2.25a2.52 2.52 0 0 0-2.09 1.37v7h-2.7v-6.16c0-1.46-.56-2.25-1.91-2.25a2.53 2.53 0 0 0-2.09 1.37v7h-2.7v-10.65h2.52v1.55a3.7 3.7 0 0 1 3.15-1.82 3.41 3.41 0 0 1 3.3 1.86 3.73 3.73 0 0 1 3.39-1.86c2.16 0 3.73 1.5 3.73 4.07m10.19.01a3 3 0 0 0-2.52-1.48 3.08 3.08 0 0 0 0 6.15 3 3 0 0 0 2.52-1.48v-3.19zm2.7-3.73v10.65h-2.49v-1.39a3.68 3.68 0 0 1-3.21 1.66 5.61 5.61 0 0 1 0-11.19 3.82 3.82 0 0 1 3.21 1.66v-1.39H459z" transform="translate(-216.4 -2794.02)"/><path class="cls-3" d="M245.63 4.49h2.7v16.99h-2.7z"/><path class="cls-3" d="M289.29 2827.66c0-1.55-1.08-2.34-2.81-2.34h-2.13v4.68h2.13c1.73 0 2.81-.79 2.81-2.34m-7.64-4.9h5.17c3.12 0 5.21 2 5.21 4.9a4.55 4.55 0 0 1-3.5 4.72l3.93 6.11h-3.14l-3.73-5.93h-1.24v5.93h-2.7v-15.73zm20.09 9.41a2.69 2.69 0 0 0-5.28 0h5.28zm2.7.94v1h-8a3 3 0 0 0 3 2.16 4.29 4.29 0 0 0 2.92-1.08l1.35 2a6.82 6.82 0 0 1-4.27 1.53 5.6 5.6 0 0 1-5.73-5.6 5.36 5.36 0 1 1 10.72 0m.99-5.28h2.11v-2.61a3.67 3.67 0 0 1 3.82-4 4.66 4.66 0 0 1 2.36.56l-1 2.27a1.86 1.86 0 0 0-1.08-.32 1.4 1.4 0 0 0-1.39 1.62v2.47h2.61v2.43h-2.61v8.22h-2.7v-8.22h-2.11v-2.43zm16.36 4.33a2.69 2.69 0 0 0-5.28 0h5.28zm2.7.94v1h-8a3 3 0 0 0 3 2.16 4.29 4.29 0 0 0 2.92-1.08l1.35 2a6.82 6.82 0 0 1-4.27 1.53 5.6 5.6 0 0 1-5.73-5.6 5.36 5.36 0 1 1 10.72 0m9.28-5.22l-.94 2.43a3.1 3.1 0 0 0-1.28-.25 2.81 2.81 0 0 0-2.38 1.44v7h-2.7v-10.65H329v1.55a3.47 3.47 0 0 1 2.9-1.82 5.79 5.79 0 0 1 1.84.34m8.71-.04l-.94 2.43a3.1 3.1 0 0 0-1.28-.25 2.81 2.81 0 0 0-2.38 1.44v7h-2.7v-10.65h2.56v1.55a3.46 3.46 0 0 1 2.9-1.82 5.8 5.8 0 0 1 1.84.34m8.55 3.63a3 3 0 0 0-2.52-1.48 3.08 3.08 0 0 0 0 6.16 3 3 0 0 0 2.52-1.48v-3.19zm2.7-3.73v10.65h-2.5v-1.39a3.68 3.68 0 0 1-3.21 1.66 5.61 5.61 0 0 1 0-11.19 3.81 3.81 0 0 1 3.21 1.66v-1.39h2.5z" transform="translate(-216.4 -2794.02)"/><path class="cls-3" d="M140.27 27.48h2.7v16.99h-2.7z"/><path class="cls-3" d="M374 2828.76c1.53-1.28 1.73-1.75 1.73-2.25a1.68 1.68 0 0 0-3.35 0c0 .79.58 1.26 1.62 2.25m3.41 6.2l-3.57-3.12c-1.89 1.62-2.27 2-2.27 2.67 0 1.12 1.28 1.78 2.54 1.78a4.83 4.83 0 0 0 3.3-1.33m4.22-5.1c0 3.51-.92 4.81-.92 4.81l2.56 2.25-1.57 1.84-2.4-2.14a7 7 0 0 1-5.19 2.14c-3.1 0-5.24-2.09-5.24-4.09 0-1.48.59-2.58 3.1-4.47-1.64-1.51-2.2-2.56-2.2-3.68a4.3 4.3 0 0 1 8.58 0c0 1.28-.56 2.16-2.54 3.84l2.9 2.56s.34-.49.34-3.06h2.58z" transform="translate(-216.4 -2794.02)"/><path class="cls-3" d="M177.81 35.12h6.29v2.56h-6.29v4.23h6.96v2.56h-9.66V28.74h9.53v2.56h-6.83v3.82z"/><path class="cls-3" d="M419.55 2831.63v6.85h-2.7v-6.16c0-1.46-.56-2.25-1.91-2.25a2.53 2.53 0 0 0-2.09 1.37v7h-2.7v-6.16c0-1.46-.56-2.25-1.91-2.25a2.53 2.53 0 0 0-2.09 1.37v7h-2.7v-10.65H406v1.55a3.69 3.69 0 0 1 3.14-1.82 3.4 3.4 0 0 1 3.3 1.86 3.73 3.73 0 0 1 3.39-1.86c2.16 0 3.73 1.5 3.73 4.07m9.99.62a2.48 2.48 0 0 0-2.67-2.16 2.45 2.45 0 0 0-2.61 2.16h5.28zm2.7.94v1h-8a3 3 0 0 0 3 2.16 4.29 4.29 0 0 0 2.92-1.08l1.35 2a6.82 6.82 0 0 1-4.27 1.53 5.6 5.6 0 0 1-5.73-5.6 5.36 5.36 0 1 1 10.72 0m9.28-5.22l-.94 2.43a3.1 3.1 0 0 0-1.28-.25 2.82 2.82 0 0 0-2.38 1.44v7h-2.7v-10.65h2.56v1.55a3.47 3.47 0 0 1 2.9-1.82 5.8 5.8 0 0 1 1.84.34m8.48 3.63a3 3 0 0 0-2.54-1.48 3.08 3.08 0 0 0 0 6.16 3 3 0 0 0 2.54-1.48v-3.19zm-3 7.19a5.61 5.61 0 0 1 0-11.19 3.81 3.81 0 0 1 3.21 1.66v-1.39h2.49v10.74c0 3.71-2.74 5.35-5.73 5.35a7.67 7.67 0 0 1-5.05-2l1.53-2.07a5.39 5.39 0 0 0 3.53 1.57c2.09 0 3-1.15 3-2.74v-1.28a3.8 3.8 0 0 1-3 1.37m15.75-6.61a2.48 2.48 0 0 0-2.67-2.16 2.45 2.45 0 0 0-2.61 2.16h5.28zm2.7.94v1h-8a3 3 0 0 0 3 2.16 4.29 4.29 0 0 0 2.92-1.08l1.35 2a6.82 6.82 0 0 1-4.27 1.53 5.6 5.6 0 0 1-5.73-5.6 5.36 5.36 0 1 1 10.72 0m11.58-1.53v6.9h-2.7v-6.22a2 2 0 0 0-2.11-2.18 2.63 2.63 0 0 0-2.11 1.37v7h-2.7v-10.65h2.52v1.55a3.68 3.68 0 0 1 3.19-1.82 3.82 3.82 0 0 1 3.91 4" transform="translate(-216.4 -2794.02)"/><path class="cls-2" d="M0 0h285.6v58.1H0z"/><path class="cls-3" d="M487.35 2834.94l1.78 1.8a5.77 5.77 0 0 1-4.4 2 5.6 5.6 0 1 1 0-11.19 5.71 5.71 0 0 1 4.36 2l-1.86 1.66a3.31 3.31 0 0 0-2.49-1.12 3.08 3.08 0 0 0 0 6.16 3.15 3.15 0 0 0 2.63-1.3m3.87 5.76a2.53 2.53 0 0 0 1.41.7c.92 0 1.3-.27 1.82-1.57l.43-1.1-5.19-10.9h3l3.6 7.8 2.81-7.8H502l-5.17 13c-.92 2.34-2.43 3.06-4 3.06a4.72 4.72 0 0 1-2.85-1.12z" transform="translate(-216.4 -2794.02)"/><path class="cls-2" d="M0 0h285.59v58.1H0z"/></svg>