<svg id="Слой_1" xmlns="http://www.w3.org/2000/svg" xmlns:xlink="http://www.w3.org/1999/xlink" viewBox="0 0 125.8 51.7"><style>.st0{clip-path:url(#SVGID_2_)}.st0,.st1{fill:#343435}.st2{fill:#3aaf73}.st3{clip-path:url(#SVGID_4_);fill:#343435}</style><defs><path id="SVGID_1_" d="M0 0h125.8v51.7H0z"/></defs><clipPath id="SVGID_2_"><use xlink:href="#SVGID_1_" overflow="visible"/></clipPath><path class="st0" d="M70.6 21.6H78c-1.2-3.1-2.5-6.1-3.8-9.2-1.2 3.1-2.4 6.1-3.6 9.2M81.4 29c-.3 0-.5-.1-.7-.6-.3-.8-1-2.4-1.3-3.2-.1-.3-.3-.4-.6-.4h-9.2c-.4 0-.5.1-.7.5-.4 1-.8 2.1-1.2 3.1-.2.4-.4.6-.9.6h-2c-.7 0-.8-.2-.5-.8l8.8-21.6c.1-.4.1-.4 1-.4s.9 0 1.1.4c3 7.2 5.9 14.4 8.9 21.6.3.6.1.8-.5.8h-2.2"/><path class="st1" d="M43.3 17.6c0-5.4 3.5-10 8.7-11.3 3.7-.9 7.2-.2 10.1 2.4 1.6 1.5 1.4 1.1.1 2.5-.2.3-.5.5-.7.7-.3.3-.6.3-.9 0-2.1-2.6-4.9-3.4-8.1-2.5-2.7.8-4.3 2.7-5.1 5.3-1.1 3.6 0 7.4 2.7 9.7 3.1 2.5 8.2 2 10.6-1.2.6-.7.7-.7 1.3-.1.4.4.7.8 1.1 1.1.3.3.4.6.1.9-2.8 3.2-6.2 4.6-10.4 3.8-5.1-.9-8.7-4.8-9.3-10-.1-.3-.1-.8-.2-1.3"/><path class="st2" d="M17.1 34.5c-.6.6-1.7 1-2.7 1-.7 0-1.8-.2-2.6-1l-8.2-8.2V6.8l8.3 7.6-5 4.9c-.7.7-.7 1.8 0 2.5.3.3.8.5 1.3.5s.9-.2 1.3-.5l5-5 5 5c.3.3.8.5 1.3.5.4 0 .8-.1 1.1-.4l.1-.1c.7-.7.7-1.8 0-2.5l-5-4.9 8.3-7.6v19.5l-8.2 8.2zM27.8 1.2c-.6-.3-1.4-.2-1.9.3L14.4 12 3 1.5C2.5 1 1.7.9 1.1 1.2.4 1.4 0 2.1 0 2.8V27c0 .5.2 1 .6 1.3L9.2 37c1.3 1.3 3.2 2.1 5.1 2.1h.1c2 0 4-.8 5.2-2.1l8.6-8.6c.4-.3.6-.8.6-1.3V2.8c.1-.7-.3-1.4-1-1.6"/><defs><path id="SVGID_3_" d="M0 0h121.7v51.7H0z"/></defs><clipPath id="SVGID_4_"><use xlink:href="#SVGID_3_" overflow="visible"/></clipPath><path class="st3" d="M91 17.7c1.9 0 3.9.1 5.8 0 1.4-.1 2.3-.9 2.7-2.2.3-1.1.4-2.2.2-3.3-.4-1.9-1.5-2.8-3.4-2.9H91v8.4zm8.1 2.8c1.1 2.1 2.2 4.1 3.3 6.1.3.5.6 1.1.9 1.6.2.5.2.7-.3.7h-2.5c-.5 0-.6-.4-.8-.7-1.2-2.2-2.5-4.5-3.6-6.8-.2-.4-.5-.6-.9-.6h-4.1V28c0 .6-.1.8-.8.8h-2c-.4 0-.6-.2-.6-.6V7.1c0-.8.4-1 1-1h8.2c3.7-.1 5.8 2.5 6.3 5.1.4 2.2.3 4.4-.7 6.4-.8 1.5-1.9 2.4-3.4 2.9m12 5.3h9.7c.7 0 .8.1.8.9v1.6c0 .5-.2.7-.7.7h-12.7c-.5 0-.7-.2-.7-.7V7.2c0-1 .1-1 1.1-1h12.2c.8 0 .9.1.9.9v1.4c0 .8-.1.9-.9.9h-9.7V16h6.4c.8 0 .9.1.9.9v1.3c0 .8-.1.9-.9.9h-6.4v6.7z"/></svg>