<svg id="Layer_1" data-name="Layer 1" xmlns="http://www.w3.org/2000/svg" viewBox="0 0 194.02 286.41"><defs><style>.cls-1{fill:#fff}.cls-2{fill:#2bb473}</style></defs><title>white-icon</title><path class="cls-1" d="M109.95 10.37a97 97 0 0 0-97 97c0 1.15 0 2.32.09 3.5A96.76 96.76 0 0 0 18.58 140c20.7 68 91.37 156.77 91.37 156.77S180.62 208 201.32 140a96.69 96.69 0 0 0 5.55-29.14c.06-1.18.09-2.35.09-3.5a97 97 0 0 0-97-97" transform="translate(-12.94 -10.37)"/><path class="cls-2" d="M158.31 83.56h-39.17V43.97H75.03v39.59H35.89v44.61h39.14v39.59h44.11v-39.59h39.17V83.56z"/></svg>