<svg id="Layer_1" data-name="Layer 1" xmlns="http://www.w3.org/2000/svg" viewBox="0 0 194.02 266.72"><defs><style>.cls-1{fill:#2bb473;}.cls-2{fill:#fff;}</style></defs><title>green-icon</title><path class="cls-1" d="M756.68,30.07c-53.58,0-97,40.45-97,90.34,0,1.07,0,2.16.09,3.26a84.62,84.62,0,0,0,5.55,27.13c20.7,63.35,91.37,146,91.37,146s70.67-82.64,91.37-146a84.58,84.58,0,0,0,5.55-27.14c0.06-1.1.09-2.19,0.09-3.26,0-49.89-43.43-90.34-97-90.34" transform="translate(-659.67 -30.07)"/><polygon class="cls-2" points="144.74 82.39 114.19 82.39 114.19 53.64 79.8 53.64 79.8 82.39 49.28 82.39 49.28 114.78 79.8 114.78 79.8 143.53 114.19 143.53 114.19 114.78 144.74 114.78 144.74 82.39"/></svg>