<?xml version="1.0" encoding="utf-8"?>
<!-- Generator: Adobe Illustrator 19.2.1, SVG Export Plug-In . SVG Version: 6.00 Build 0)  -->
<svg version="1.1" id="Слой_1" xmlns="http://www.w3.org/2000/svg" xmlns:xlink="http://www.w3.org/1999/xlink" x="0px" y="0px"
	 viewBox="0 0 125.8 51.7" style="enable-background:new 0 0 125.8 51.7;" xml:space="preserve">
<style type="text/css">
	.st0{clip-path:url(#SVGID_2_);fill:#343435;}
	.st1{fill:#343435;}
	.st2{fill:#3AAF73;}
	.st3{clip-path:url(#SVGID_4_);fill:#343435;}
</style>
<g>
	<defs>
		<rect id="SVGID_1_" y="0" width="125.8" height="51.7"/>
	</defs>
	<clipPath id="SVGID_2_">
		<use xlink:href="#SVGID_1_"  style="overflow:visible;"/>
	</clipPath>
	<path class="st0" d="M70.6,21.6H78c-1.2-3.1-2.5-6.1-3.8-9.2C73,15.5,71.8,18.5,70.6,21.6 M81.4,29c-0.3,0-0.5-0.1-0.7-0.6
		c-0.3-0.8-1-2.4-1.3-3.2c-0.1-0.3-0.3-0.4-0.6-0.4c-3.1,0-6.1,0-9.2,0c-0.4,0-0.5,0.1-0.7,0.5c-0.4,1-0.8,2.1-1.2,3.1
		c-0.2,0.4-0.4,0.6-0.9,0.6c-0.7,0-1.3,0-2,0c-0.7,0-0.8-0.2-0.5-0.8l8.8-21.6c0.1-0.4,0.1-0.4,1-0.4c0.9,0,0.9,0,1.1,0.4
		c3,7.2,5.9,14.4,8.9,21.6c0.3,0.6,0.1,0.8-0.5,0.8C83.4,29,81.8,29,81.4,29"/>
</g>
<path class="st1" d="M43.3,17.6c0-5.4,3.5-10,8.7-11.3c3.7-0.9,7.2-0.2,10.1,2.4c1.6,1.5,1.4,1.1,0.1,2.5c-0.2,0.3-0.5,0.5-0.7,0.7
	c-0.3,0.3-0.6,0.3-0.9,0c-2.1-2.6-4.9-3.4-8.1-2.5c-2.7,0.8-4.3,2.7-5.1,5.3c-1.1,3.6,0,7.4,2.7,9.7c3.1,2.5,8.2,2,10.6-1.2
	c0.6-0.7,0.7-0.7,1.3-0.1c0.4,0.4,0.7,0.8,1.1,1.1c0.3,0.3,0.4,0.6,0.1,0.9c-2.8,3.2-6.2,4.6-10.4,3.8c-5.1-0.9-8.7-4.8-9.3-10
	C43.4,18.6,43.4,18.1,43.3,17.6"/>
<path class="st2" d="M17.1,34.5c-0.6,0.6-1.7,1-2.7,1h0c-0.7,0-1.8-0.2-2.6-1l-8.2-8.2V6.8l8.3,7.6l-5,4.9c-0.7,0.7-0.7,1.8,0,2.5
	c0,0,0,0,0,0c0,0,0,0,0,0c0.3,0.3,0.8,0.5,1.3,0.5s0.9-0.2,1.3-0.5l5-5l5,5c0.3,0.3,0.8,0.5,1.3,0.5c0.4,0,0.8-0.1,1.1-0.4
	c0,0,0.1-0.1,0.1-0.1c0.7-0.7,0.7-1.8,0-2.5l-5-4.9l8.3-7.6v19.5L17.1,34.5z M27.8,1.2c-0.6-0.3-1.4-0.2-1.9,0.3L14.4,12L3,1.5
	C2.5,1,1.7,0.9,1.1,1.2C0.4,1.4,0,2.1,0,2.8V27c0,0.5,0.2,1,0.6,1.3L9.2,37c1.3,1.3,3.2,2.1,5.1,2.1h0.1c2,0,4-0.8,5.2-2.1l8.6-8.6
	c0.4-0.3,0.6-0.8,0.6-1.3V2.8C28.9,2.1,28.5,1.4,27.8,1.2"/>
<g>
	<defs>
		<rect id="SVGID_3_" y="0" width="121.7" height="51.7"/>
	</defs>
	<clipPath id="SVGID_4_">
		<use xlink:href="#SVGID_3_"  style="overflow:visible;"/>
	</clipPath>
	<path class="st3" d="M91,17.7c1.9,0,3.9,0.1,5.8,0c1.4-0.1,2.3-0.9,2.7-2.2c0.3-1.1,0.4-2.2,0.2-3.3c-0.4-1.9-1.5-2.8-3.4-2.9H91
		V17.7z M99.1,20.5c1.1,2.1,2.2,4.1,3.3,6.1c0.3,0.5,0.6,1.1,0.9,1.6c0.2,0.5,0.2,0.7-0.3,0.7h-2.5c-0.5,0-0.6-0.4-0.8-0.7
		c-1.2-2.2-2.5-4.5-3.6-6.8c-0.2-0.4-0.5-0.6-0.9-0.6l-4.1,0c0,0,0,5.5,0,7.2c0,0.6-0.1,0.8-0.8,0.8c-0.7,0-1.3,0-2,0
		c-0.4,0-0.6-0.2-0.6-0.6c0-0.1,0-14.2,0-21.1c0-0.8,0.4-1,1-1l8.2,0c3.7-0.1,5.8,2.5,6.3,5.1c0.4,2.2,0.3,4.4-0.7,6.4
		C101.7,19.1,100.6,20,99.1,20.5"/>
	<path class="st3" d="M111.1,25.8c1.2,0,7.7,0,9.7,0c0.7,0,0.8,0.1,0.8,0.9c0,0.5,0,1.1,0,1.6c0,0.5-0.2,0.7-0.7,0.7
		c-4.2,0-8.5,0-12.7,0c-0.5,0-0.7-0.2-0.7-0.7c0-0.1,0-14.2,0-21.1c0-1,0.1-1,1.1-1c4.1,0,8.1,0,12.2,0c0.8,0,0.9,0.1,0.9,0.9
		c0,0.5,0,0.9,0,1.4c0,0.8-0.1,0.9-0.9,0.9c-3,0-9.4,0-9.7,0V16c0,0,4.5,0,6.4,0c0.8,0,0.9,0.1,0.9,0.9c0,0.4,0,0.9,0,1.3
		c0,0.8-0.1,0.9-0.9,0.9h-6.4V25.8z"/>
</g>
</svg>
