<svg id="Слой_1" data-name="Слой 1" xmlns="http://www.w3.org/2000/svg" viewBox="0 0 285 121.12"><defs><style>.cls-1{fill:#333334;}.cls-2{fill:none;}.cls-3{fill:#2ab673;}.cls-4{fill:#363636;}</style></defs><title>logo-with-text</title><path class="cls-1" d="M528.13,278.46c4.56,0,9,.14,13.51,0,3.27-.13,5.3-2.16,6.3-5.21a15,15,0,0,0,.36-7.65c-0.85-4.36-3.55-6.67-8-6.72H528.13v19.63Zm19,6.5,7.69,14.34c0.68,1.26,1.38,2.51,2,3.8s0.58,1.65-.66,1.67h-5.84c-1.11,0-1.5-.9-1.88-1.58q-4.37-7.9-8.53-15.91a2.1,2.1,0,0,0-2.19-1.38H528s0,12.8,0,17c0,1.37-.26,1.89-1.93,1.89s-3.16,0-4.73,0a1.29,1.29,0,0,1-1.51-1.46c0-.34,0-33.34,0-49.5,0-1.91.84-2.44,2.33-2.44h19.22c8.69-.33,13.62,5.79,14.85,12,1,5.19.82,10.27-1.61,15.09a12.43,12.43,0,0,1-7.5,6.48" transform="translate(-315 -236.92)"/><path class="cls-1" d="M575.22,297.36H598c1.73,0,2,.25,2,2,0,1.24,0,2.49,0,3.73a1.43,1.43,0,0,1-1.63,1.68q-14.92,0-29.84,0a1.4,1.4,0,0,1-1.6-1.57c0-.29,0-33.19,0-49.36,0-2.27.15-2.41,2.47-2.41h28.55c1.79,0,2,.26,2.06,2.08q0,1.65,0,3.3c0,1.82-.21,2-2.09,2H575.25v15.6h15.08c1.87,0,2,.19,2.05,2.05q0,1.58,0,3.16c0,1.91-.19,2.09-2.16,2.1h-15v15.61Z" transform="translate(-315 -236.92)"/><rect class="cls-2" width="284.98" height="121.12"/><path class="cls-1" d="M480.23,287.47h17.39l-8.82-21.66-8.57,21.66m25.46,17.29c-0.72,0-1.12-.22-1.58-1.41-0.69-1.78-2.3-5.63-3-7.43a1.32,1.32,0,0,0-1.45-1q-10.76,0-21.52,0a1.43,1.43,0,0,0-1.55,1.13c-0.93,2.45-2,4.87-2.9,7.32a1.89,1.89,0,0,1-2.12,1.45c-1.57-.09-3.15,0-4.73,0s-1.8-.36-1.21-1.8l20.7-50.62c0.3-1,.3-1,2.39-1s2.15,0,2.55,1q10.41,25.29,20.87,50.55c0.59,1.43.35,1.84-1.15,1.86-0.86,0-4.48,0-5.34,0" transform="translate(-315 -236.92)"/><rect class="cls-2" width="285" height="121.12"/><path class="cls-1" d="M416.46,278c0.09-12.64,8.14-23.36,20.28-26.36,8.76-2.17,16.91-.51,23.61,5.74,3.76,3.51,3.27,2.68.23,5.88-0.56.59-1.16,1.14-1.72,1.73-0.77.82-1.4,0.76-2.12-.11-5-6.19-11.52-8-19-5.79-6.24,1.8-10,6.3-11.91,12.35a21.15,21.15,0,0,0,6.35,22.75c7.21,6,19.11,4.6,24.81-2.81,1.3-1.69,1.56-1.7,3.1-.18,0.88,0.87,1.74,1.77,2.65,2.62a1.33,1.33,0,0,1,.16,2.11c-6.45,7.51-14.62,10.66-24.34,8.94-11.93-2.1-20.29-11.26-21.76-23.3-0.14-1.18-.23-2.37-0.34-3.56" transform="translate(-315 -236.92)"/><path class="cls-3" d="M355.13,315.37a9.39,9.39,0,0,1-6.4,2.38h-0.07a8.59,8.59,0,0,1-6.18-2.41L323.3,296.16V250.5l19.51,17.87L331.15,279.9a4.15,4.15,0,0,0,0,5.87h0a4.15,4.15,0,0,0,5.87,0l11.79-11.67,11.77,11.69a4.15,4.15,0,0,0,5.56.28c0.11-.09.22-0.19,0.32-0.29a4.15,4.15,0,0,0,0-5.87l-11.63-11.55,19.51-17.87v45.66Zm25-78.1a4.15,4.15,0,0,0-4.47.74l-26.87,24.62L322,238a4.15,4.15,0,0,0-7,3.06v56.82a4.14,4.14,0,0,0,1.41,3.11l20.2,20.19A16.86,16.86,0,0,0,348.66,326h0.13A17.51,17.51,0,0,0,361,321.2L381.23,301a4.13,4.13,0,0,0,1.41-3.11V241.07a4.15,4.15,0,0,0-2.48-3.8" transform="translate(-315 -236.92)"/><rect class="cls-2" width="284.98" height="121.12"/><path class="cls-4" d="M434.13,324.32a4.57,4.57,0,0,0-3.48-1.48,5.1,5.1,0,0,0,0,10.16,5,5,0,0,0,3.64-1.67l1,1a6.41,6.41,0,0,1-4.66,2.07,6.53,6.53,0,0,1,0-13,6.06,6.06,0,0,1,4.52,1.93Z" transform="translate(-315 -236.92)"/><path class="cls-4" d="M443,329.34a2.51,2.51,0,0,0-2.58-2.25,2.58,2.58,0,0,0-2.65,2.25H443Zm1.48,0.77a4.72,4.72,0,0,1,0,.49h-6.72A2.81,2.81,0,0,0,440.6,333a3.21,3.21,0,0,0,2.5-1.22l1,1a4.64,4.64,0,0,1-3.46,1.64,4.25,4.25,0,0,1-4.34-4.38,4.14,4.14,0,0,1,4.16-4.38c2.32,0,4.05,1.75,4.05,4.43" transform="translate(-315 -236.92)"/><path class="cls-4" d="M453.29,328.87v5.35h-1.51v-5.1a1.85,1.85,0,0,0-2-2,2.62,2.62,0,0,0-2.07,1.4v5.73H446.2V325.9h1.4v1.17a3,3,0,0,1,2.56-1.39,3,3,0,0,1,3.13,3.19" transform="translate(-315 -236.92)"/><path class="cls-4" d="M454.88,325.9h1.62v-2.54H458v2.54h2.59v1.37H458v4.48a1.11,1.11,0,0,0,1.21,1.28,2,2,0,0,0,1-.34l0.56,1.24a3.42,3.42,0,0,1-1.73.5,2.43,2.43,0,0,1-2.5-2.61v-4.56h-1.62V325.9Z" transform="translate(-315 -236.92)"/><path class="cls-4" d="M467.3,325.9l-0.56,1.37a2.1,2.1,0,0,0-1-.18,2.31,2.31,0,0,0-1.91,1.4v5.73h-1.51V325.9h1.4v1.28a2.79,2.79,0,0,1,2.32-1.49,3.48,3.48,0,0,1,1.21.22" transform="translate(-315 -236.92)"/><path class="cls-4" d="M474.36,329.34a2.51,2.51,0,0,0-2.58-2.25,2.58,2.58,0,0,0-2.65,2.25h5.22Zm1.48,0.77a4.72,4.72,0,0,1,0,.49H469.1A2.81,2.81,0,0,0,472,333a3.21,3.21,0,0,0,2.5-1.22l1,1a4.64,4.64,0,0,1-3.46,1.64,4.25,4.25,0,0,1-4.34-4.38,4.14,4.14,0,0,1,4.16-4.38c2.32,0,4.05,1.75,4.05,4.43" transform="translate(-315 -236.92)"/><path class="cls-4" d="M481.82,325.9h1.73V323a2.55,2.55,0,0,1,2.56-2.65,3.44,3.44,0,0,1,1.75.49l-0.56,1.24a2.15,2.15,0,0,0-1-.32,1.19,1.19,0,0,0-1.26,1.33v2.77h2.16v1.37h-2.16v7h-1.51v-7h-1.73V325.9Z" transform="translate(-315 -236.92)"/><path class="cls-4" d="M495.05,330.06a2.78,2.78,0,1,0-2.77,3,2.79,2.79,0,0,0,2.77-3m1.51,0a4.29,4.29,0,1,1-4.29-4.38,4.26,4.26,0,0,1,4.29,4.38" transform="translate(-315 -236.92)"/><path class="cls-4" d="M503.23,325.9l-0.56,1.37a2.1,2.1,0,0,0-1-.18,2.31,2.31,0,0,0-1.91,1.4v5.73h-1.51V325.9h1.4v1.28a2.79,2.79,0,0,1,2.32-1.49,3.48,3.48,0,0,1,1.21.22" transform="translate(-315 -236.92)"/><path class="cls-4" d="M511.94,329.38h4.32l-2.16-5.6Zm1.46-7.76h1.4l4.92,12.61h-1.59l-1.32-3.4h-5.44l-1.31,3.4h-1.62Z" transform="translate(-315 -236.92)"/><path class="cls-4" d="M528.12,328.87v5.35H526.6v-5.1a1.85,1.85,0,0,0-2-2,2.62,2.62,0,0,0-2.07,1.4v5.73H521V325.9h1.4v1.17a3,3,0,0,1,2.56-1.39,3,3,0,0,1,3.13,3.19" transform="translate(-315 -236.92)"/><path class="cls-4" d="M530.69,325.9h1.51v8.32h-1.51V325.9Zm0.76-3.69a1,1,0,1,1-1,1,1,1,0,0,1,1-1" transform="translate(-315 -236.92)"/><path class="cls-4" d="M546.45,328.87v5.35h-1.51v-5.12a1.73,1.73,0,0,0-1.78-2,2.14,2.14,0,0,0-1.78,1.33v5.8h-1.51v-5.12a1.73,1.73,0,0,0-1.78-2,2.17,2.17,0,0,0-1.78,1.33v5.8h-1.51V325.9h1.41v1.22a2.54,2.54,0,0,1,2.3-1.44,2.59,2.59,0,0,1,2.59,1.55,2.75,2.75,0,0,1,2.48-1.55c1.73,0,2.88,1.14,2.88,3.19" transform="translate(-315 -236.92)"/><path class="cls-4" d="M554.89,328.5a3,3,0,0,0-2.43-1.4,3,3,0,0,0,0,5.94,3,3,0,0,0,2.43-1.41V328.5Zm1.51-2.59v8.32H555V333a3.27,3.27,0,0,1-2.85,1.42,4.39,4.39,0,0,1,0-8.75,3.27,3.27,0,0,1,2.85,1.42V325.9h1.39Z" transform="translate(-315 -236.92)"/><rect class="cls-4" x="244.04" y="83.68" width="1.51" height="13.61"/><path class="cls-4" d="M431.2,344.81c0-1.39-.92-2.29-2.61-2.29h-1.86v4.57h1.86c1.69,0,2.61-.9,2.61-2.29m-6-3.73h3.28c2.5,0,4.21,1.48,4.21,3.73a3.58,3.58,0,0,1-3.08,3.6l3.49,5.28h-1.82l-3.4-5.15h-1.17v5.15h-1.51V341.08Z" transform="translate(-315 -236.92)"/><path class="cls-4" d="M441,348.81a2.51,2.51,0,0,0-2.58-2.25,2.58,2.58,0,0,0-2.65,2.25H441Zm1.48,0.77a4.72,4.72,0,0,1,0,.49h-6.72a2.81,2.81,0,0,0,2.86,2.43,3.21,3.21,0,0,0,2.5-1.22l1,1a4.64,4.64,0,0,1-3.46,1.64,4.25,4.25,0,0,1-4.34-4.38,4.14,4.14,0,0,1,4.16-4.38c2.32,0,4.05,1.75,4.05,4.43" transform="translate(-315 -236.92)"/><path class="cls-4" d="M443.42,345.37h1.73V342.5a2.55,2.55,0,0,1,2.56-2.65,3.45,3.45,0,0,1,1.75.49l-0.56,1.24a2.15,2.15,0,0,0-1-.32,1.2,1.2,0,0,0-1.26,1.33v2.77h2.16v1.37h-2.16v7h-1.51v-7h-1.73v-1.37Z" transform="translate(-315 -236.92)"/><path class="cls-4" d="M456.34,348.81a2.51,2.51,0,0,0-2.58-2.25,2.58,2.58,0,0,0-2.65,2.25h5.22Zm1.48,0.77a4.72,4.72,0,0,1,0,.49h-6.72a2.81,2.81,0,0,0,2.86,2.43,3.21,3.21,0,0,0,2.5-1.22l1,1a4.64,4.64,0,0,1-3.46,1.64,4.25,4.25,0,0,1-4.34-4.38,4.14,4.14,0,0,1,4.16-4.38c2.32,0,4.05,1.75,4.05,4.43" transform="translate(-315 -236.92)"/><path class="cls-4" d="M464.48,345.37l-0.56,1.37a2.1,2.1,0,0,0-1-.18,2.31,2.31,0,0,0-1.91,1.4v5.73h-1.51v-8.32h1.4v1.28a2.79,2.79,0,0,1,2.32-1.49,3.48,3.48,0,0,1,1.21.22" transform="translate(-315 -236.92)"/><path class="cls-4" d="M470.6,345.37L470,346.74a2.1,2.1,0,0,0-1-.18,2.32,2.32,0,0,0-1.91,1.4v5.73h-1.51v-8.32h1.4v1.28a2.79,2.79,0,0,1,2.32-1.49,3.48,3.48,0,0,1,1.21.22" transform="translate(-315 -236.92)"/><path class="cls-4" d="M477.64,348a3,3,0,0,0-2.43-1.4,3,3,0,0,0,0,5.94,3,3,0,0,0,2.43-1.4V348Zm1.51-2.59v8.32h-1.39v-1.21a3.27,3.27,0,0,1-2.84,1.42,4.39,4.39,0,0,1,0-8.75,3.27,3.27,0,0,1,2.84,1.42v-1.21h1.39Z" transform="translate(-315 -236.92)"/><rect class="cls-4" x="166.78" y="103.15" width="1.51" height="13.61"/><path class="cls-4" d="M495,346.12c1.58-1.39,1.75-1.55,1.75-2.38a1.62,1.62,0,0,0-1.66-1.55,1.6,1.6,0,0,0-1.66,1.55c0,1.15.74,1.55,1.57,2.38m3.35,5-3.48-3.1-0.05.06c-1.51,1.24-2.2,1.85-2.2,2.72,0,1.26,1.32,1.75,2.5,1.75a4.26,4.26,0,0,0,3.22-1.42m2.68-4.3a8.19,8.19,0,0,1-.79,4.07l2.2,2-0.92,1.08L499.36,352a5.56,5.56,0,0,1-4.23,1.91c-2.49,0-4-1.46-4-3s0.5-2.2,2.7-3.91c-1.44-1.3-1.89-2.16-1.89-3.28a3.18,3.18,0,0,1,6.34,0c0,1.06-.36,1.73-2.25,3.29l3.15,2.85s0.47-.59.47-3.12H501Z" transform="translate(-315 -236.92)"/><polygon class="cls-4" points="195.47 109.58 200.8 109.58 200.8 111.02 195.47 111.02 195.47 115.32 201.34 115.32 201.34 116.76 193.96 116.76 193.96 104.16 201.23 104.16 201.23 105.6 195.47 105.6 195.47 109.58"/><path class="cls-4" d="M530.1,348.34v5.35h-1.51v-5.12a1.73,1.73,0,0,0-1.78-2,2.14,2.14,0,0,0-1.78,1.33v5.8h-1.51v-5.12a1.73,1.73,0,0,0-1.78-2,2.17,2.17,0,0,0-1.78,1.33v5.8h-1.51v-8.32h1.41v1.22a2.54,2.54,0,0,1,2.3-1.44,2.59,2.59,0,0,1,2.59,1.55,2.75,2.75,0,0,1,2.49-1.55c1.73,0,2.88,1.14,2.88,3.19" transform="translate(-315 -236.92)"/><path class="cls-4" d="M538.56,348.81a2.51,2.51,0,0,0-2.58-2.25,2.58,2.58,0,0,0-2.65,2.25h5.22Zm1.48,0.77a4.72,4.72,0,0,1,0,.49H533.3a2.81,2.81,0,0,0,2.86,2.43,3.21,3.21,0,0,0,2.5-1.22l1,1a4.64,4.64,0,0,1-3.46,1.64,4.25,4.25,0,0,1-4.34-4.38,4.14,4.14,0,0,1,4.16-4.38c2.32,0,4.05,1.75,4.05,4.43" transform="translate(-315 -236.92)"/><path class="cls-4" d="M546.7,345.37l-0.56,1.37a2.1,2.1,0,0,0-1-.18,2.31,2.31,0,0,0-1.91,1.4v5.73h-1.51v-8.32h1.4v1.28a2.79,2.79,0,0,1,2.32-1.49,3.48,3.48,0,0,1,1.21.22" transform="translate(-315 -236.92)"/><path class="cls-4" d="M553.74,348a3,3,0,0,0-2.45-1.41,3,3,0,0,0,0,5.94,3,3,0,0,0,2.45-1.41V348Zm0,4.68a3.34,3.34,0,0,1-2.68,1.26,4.39,4.39,0,0,1,0-8.75,3.24,3.24,0,0,1,2.81,1.42v-1.21h1.39v8.36a4.07,4.07,0,0,1-4.38,4.32,5.07,5.07,0,0,1-3.64-1.58l0.92-1.13a3.67,3.67,0,0,0,2.72,1.31,2.59,2.59,0,0,0,2.86-2.85v-1.15Z" transform="translate(-315 -236.92)"/><path class="cls-4" d="M563.72,348.81a2.51,2.51,0,0,0-2.58-2.25,2.58,2.58,0,0,0-2.65,2.25h5.22Zm1.48,0.77a4.72,4.72,0,0,1,0,.49h-6.72a2.81,2.81,0,0,0,2.86,2.43,3.21,3.21,0,0,0,2.5-1.22l1,1a4.64,4.64,0,0,1-3.46,1.64,4.25,4.25,0,0,1-4.34-4.38,4.14,4.14,0,0,1,4.16-4.38c2.32,0,4.05,1.75,4.05,4.43" transform="translate(-315 -236.92)"/><path class="cls-4" d="M574,348.34v5.35h-1.51v-5.1a1.85,1.85,0,0,0-2-2,2.62,2.62,0,0,0-2.07,1.4v5.73h-1.51v-8.32h1.4v1.17a3,3,0,0,1,2.56-1.39,3,3,0,0,1,3.13,3.19" transform="translate(-315 -236.92)"/><path class="cls-4" d="M583.44,352.3a4.48,4.48,0,0,1-3.4,1.6,4.38,4.38,0,0,1,0-8.75,4.46,4.46,0,0,1,3.31,1.49l-1,.92a3.08,3.08,0,0,0-2.29-1,3,3,0,0,0,0,5.94,3.05,3.05,0,0,0,2.43-1.19Z" transform="translate(-315 -236.92)"/><path class="cls-4" d="M584.89,356.21a1.94,1.94,0,0,0,1,.43c0.67,0,1-.47,1.3-1.28l0.65-1.64-3.89-8.36h1.71l2.92,6.57,2.49-6.57h1.64s-4.18,10.52-4.38,11A2.44,2.44,0,0,1,586,358a3.06,3.06,0,0,1-1.76-.59Z" transform="translate(-315 -236.92)"/><rect class="cls-2" width="285" height="121.12"/></svg>