<svg id="Layer_1" data-name="Layer 1" xmlns="http://www.w3.org/2000/svg" viewBox="0 0 194.02 286.41"><defs><style>.cls-1{fill:#fff;}.cls-2{fill:#2bb473;}</style></defs><title>white-icon</title><path class="cls-1" d="M109.95,10.37a97,97,0,0,0-97,97c0,1.15,0,2.32.09,3.5A96.76,96.76,0,0,0,18.58,140c20.7,68,91.37,156.77,91.37,156.77S180.62,208,201.32,140a96.69,96.69,0,0,0,5.55-29.14c0.06-1.18.09-2.35,0.09-3.5a97,97,0,0,0-97-97" transform="translate(-12.94 -10.37)"/><polygon class="cls-2" points="158.31 83.56 119.14 83.56 119.14 43.97 75.03 43.97 75.03 83.56 35.89 83.56 35.89 128.17 75.03 128.17 75.03 167.76 119.14 167.76 119.14 128.17 158.31 128.17 158.31 83.56"/></svg>